<svg width="22" height="22" viewBox="0 0 22 22" fill="none" xmlns="http://www.w3.org/2000/svg">
<path d="M14.7143 11.121C14.7143 13.0093 13.1741 14.5495 11.2857 14.5495C9.39732 14.5495 7.85714 13.0093 7.85714 11.121C7.85714 9.23256 9.39732 7.69238 11.2857 7.69238C13.1741 7.69238 14.7143 9.23256 14.7143 11.121ZM16.5625 11.121C16.5625 8.20131 14.2054 5.84417 11.2857 5.84417C8.36607 5.84417 6.00893 8.20131 6.00893 11.121C6.00893 14.0406 8.36607 16.3977 11.2857 16.3977C14.2054 16.3977 16.5625 14.0406 16.5625 11.121ZM18.0089 5.62988C18.0089 4.94685 17.4598 4.39774 16.7768 4.39774C16.0938 4.39774 15.5446 4.94685 15.5446 5.62988C15.5446 6.31292 16.0938 6.86203 16.7768 6.86203C17.4598 6.86203 18.0089 6.31292 18.0089 5.62988ZM11.2857 2.68345C12.7857 2.68345 16 2.56292 17.3527 3.09863C17.8214 3.28613 18.1696 3.51381 18.5313 3.87542C18.8929 4.23703 19.1205 4.58524 19.308 5.05399C19.8438 6.40667 19.7232 9.62095 19.7232 11.121C19.7232 12.621 19.8438 15.8352 19.308 17.1879C19.1205 17.6567 18.8929 18.0049 18.5313 18.3665C18.1696 18.7281 17.8214 18.9558 17.3527 19.1433C16 19.679 12.7857 19.5585 11.2857 19.5585C9.78571 19.5585 6.57143 19.679 5.21875 19.1433C4.75 18.9558 4.40179 18.7281 4.04018 18.3665C3.67857 18.0049 3.45089 17.6567 3.26339 17.1879C2.72768 15.8352 2.84821 12.621 2.84821 11.121C2.84821 9.62095 2.72768 6.40667 3.26339 5.05399C3.45089 4.58524 3.67857 4.23703 4.04018 3.87542C4.40179 3.51381 4.75 3.28613 5.21875 3.09863C6.57143 2.56292 9.78571 2.68345 11.2857 2.68345ZM21.5714 11.121C21.5714 9.70131 21.5848 8.29506 21.5045 6.87542C21.4241 5.2281 21.0491 3.76828 19.8438 2.56292C18.6384 1.35756 17.1786 0.98256 15.5312 0.902204C14.1116 0.821846 12.7054 0.835239 11.2857 0.835239C9.86607 0.835239 8.45982 0.821846 7.04018 0.902204C5.39286 0.98256 3.93304 1.35756 2.72768 2.56292C1.52232 3.76828 1.14732 5.2281 1.06696 6.87542C0.986607 8.29506 1 9.70131 1 11.121C1 12.5406 0.986607 13.9468 1.06696 15.3665C1.14732 17.0138 1.52232 18.4736 2.72768 19.679C3.93304 20.8843 5.39286 21.2593 7.04018 21.3397C8.45982 21.4201 9.86607 21.4067 11.2857 21.4067C12.7054 21.4067 14.1116 21.4201 15.5312 21.3397C17.1786 21.2593 18.6384 20.8843 19.8438 19.679C21.0491 18.4736 21.4241 17.0138 21.5045 15.3665C21.5848 13.9468 21.5714 12.5406 21.5714 11.121Z" fill="#EBEBEB"/>
</svg>
